<?xml version="1.0" encoding="utf-8"?>
<!-- Generator: Adobe Illustrator 17.1.0, SVG Export Plug-In . SVG Version: 6.00 Build 0)  -->
<!DOCTYPE svg PUBLIC "-//W3C//DTD SVG 1.1//EN" "http://www.w3.org/Graphics/SVG/1.1/DTD/svg11.dtd">
<svg version="1.1" xmlns="http://www.w3.org/2000/svg" xmlns:xlink="http://www.w3.org/1999/xlink" x="0px" y="0px"
	 viewBox="0 0 1270.1 1139.1" enable-background="new 0 0 1270.1 1139.1" xml:space="preserve">
<g id="color">
</g>
<g id="Capa_4" display="none">
</g>
<g id="Capa_3">
	<g>
		<rect x="522.5" y="245.4" fill="#E5E5E5" width="292.4" height="45.2"/>
		<rect x="305.7" y="281.6" fill="#E5E5E5" width="80.4" height="560.7"/>
		<rect x="958.3" y="281.6" fill="#E5E5E5" width="80.4" height="560.7"/>
		<rect x="199.2" y="289.6" fill="#E5E5E5" width="68.3" height="520.5"/>
		<path fill="#E5E5E5" d="M403.7,887.5V885v-34.2H287.1V886v1.5v21.1h-20.6v40.2h158.8v-40.2h-21.6V887.5z M386.6,908.6h-82.4v-21.1
			h82.4V908.6z"/>
		<path fill="#E5E5E5" d="M1056.3,887.5V885v-34.2H939.7V886v1.5v21.1h-20.6v40.2h158.8v-40.2h-21.6V887.5z M1039.2,908.6h-82.4
			v-21.1h82.4V908.6z"/>
		<rect x="139.9" y="300.7" fill="#E5E5E5" width="51.7" height="493.4"/>
		<rect x="275.1" y="300.7" fill="#E5E5E5" width="23.1" height="493.4"/>
		<rect x="1046.3" y="300.7" fill="#E5E5E5" width="76" height="493.4"/>
		<path fill="#E5E5E5" d="M949.8,300.7H393.6V794h556.1V300.7z M481.1,730.7c-11.9,0-21.6-9.7-21.6-21.6c0-11.9,9.7-21.6,21.6-21.6
			s21.6,9.7,21.6,21.6C502.7,721,493,730.7,481.1,730.7z M558.5,730.7c-11.9,0-21.6-9.7-21.6-21.6c0-11.9,9.7-21.6,21.6-21.6
			s21.6,9.7,21.6,21.6C580.1,721,570.4,730.7,558.5,730.7z M637.7,730.7c-11.9,0-21.6-9.7-21.6-21.6c0-11.9,9.7-21.6,21.6-21.6
			c11.9,0,21.6,9.7,21.6,21.6C659.3,721,649.6,730.7,637.7,730.7z"/>
	</g>
</g>
</svg>
