<?xml version="1.0" encoding="utf-8"?>
<!-- Generator: Adobe Illustrator 17.1.0, SVG Export Plug-In . SVG Version: 6.00 Build 0)  -->
<!DOCTYPE svg PUBLIC "-//W3C//DTD SVG 1.1//EN" "http://www.w3.org/Graphics/SVG/1.1/DTD/svg11.dtd">
<svg version="1.1" xmlns="http://www.w3.org/2000/svg" xmlns:xlink="http://www.w3.org/1999/xlink" x="0px" y="0px"
	 viewBox="0 0 1270.1 1139.1" enable-background="new 0 0 1270.1 1139.1" xml:space="preserve">
<g id="color">
</g>
<g id="Capa_4" display="none">
</g>
<g id="Capa_3">
	<g>
		<rect x="275" y="259.9" fill="#E5E5E5" width="733.2" height="302.8"/>
		<polygon fill="#E5E5E5" points="275,731.6 574.4,985.8 574.4,1025.4 708.8,1025.4 708.8,985.8 1008.2,731.6 1008.2,586.5 
			275,586.5 		"/>
		<polygon fill="#E5E5E5" points="557.8,237.3 738.6,237.3 738.6,91.1 557.8,91.1 557.8,147.2 519.9,147.2 519.9,206.2 557.8,206.2 
					"/>
		<rect x="788.3" y="60.5" fill="#E5E5E5" width="61.1" height="176.8"/>
		<rect x="422.9" y="60.5" fill="#E5E5E5" width="61.1" height="176.8"/>
		<polygon fill="#E5E5E5" points="966.7,799.3 895.8,869.5 895.8,1031.1 860.4,1031.1 860.4,1056.8 1002.1,1056.8 1002.1,1031.1 
			966.7,1031.1 		"/>
		<polygon fill="#E5E5E5" points="396,881.4 325.1,816.3 325.1,1044.6 289.7,1044.6 289.7,1070.2 431.4,1070.2 431.4,1044.6 
			396,1044.6 		"/>
	</g>
</g>
</svg>
