<?xml version="1.0" encoding="utf-8"?>
<!-- Generator: Adobe Illustrator 17.1.0, SVG Export Plug-In . SVG Version: 6.00 Build 0)  -->
<!DOCTYPE svg PUBLIC "-//W3C//DTD SVG 1.1//EN" "http://www.w3.org/Graphics/SVG/1.1/DTD/svg11.dtd">
<svg version="1.1" xmlns="http://www.w3.org/2000/svg" xmlns:xlink="http://www.w3.org/1999/xlink" x="0px" y="0px"
	 viewBox="0 0 1270.1 1139.1" enable-background="new 0 0 1270.1 1139.1" xml:space="preserve">
<g id="color">
</g>
<g id="Capa_4" display="none">
</g>
<g id="Capa_3">
	<g>
		<polygon fill="#E5E5E5" points="297.5,1021.7 956.5,1021.7 957.4,947.4 957.4,909.9 297.5,909.9 		"/>
		<polygon fill="#E5E5E5" points="861,895 825.4,386.4 750.5,386.4 714.9,895 		"/>
		<polygon fill="#E5E5E5" points="522.9,240 434.6,240 392.6,895 565,895 		"/>
		<path fill="#E5E5E5" d="M475.8,181.4c23.8-11.2,56.3-34.8,60.2-58.5c4.6-27.9-7.5-40.5-7.5-40.5s-1.3,20.7-16.2,32.5
			c-8.4,6.6-38.3,22.2-51.9,48.5c-10.2,19.8-8.2,44.5-8.2,44.5S451,193.1,475.8,181.4z"/>
		<path fill="#E5E5E5" d="M802.8,325.4c23.8-11.2,56.3-34.8,60.2-58.5c4.6-27.9-7.5-40.5-7.5-40.5s-1.3,20.7-16.2,32.5
			c-8.4,6.6-38.3,22.2-51.9,48.5c-10.2,19.8-8.2,44.5-8.2,44.5S778,337.1,802.8,325.4z"/>
	</g>
</g>
</svg>
