<?xml version="1.0" encoding="utf-8"?>
<!-- Generator: Adobe Illustrator 17.1.0, SVG Export Plug-In . SVG Version: 6.00 Build 0)  -->
<!DOCTYPE svg PUBLIC "-//W3C//DTD SVG 1.1//EN" "http://www.w3.org/Graphics/SVG/1.1/DTD/svg11.dtd">
<svg version="1.1" xmlns="http://www.w3.org/2000/svg" xmlns:xlink="http://www.w3.org/1999/xlink" x="0px" y="0px"
	 viewBox="0 0 1270.1 1139.1" enable-background="new 0 0 1270.1 1139.1" xml:space="preserve">
<g id="color">
</g>
<g id="Capa_4" display="none">
</g>
<g id="Capa_3">
	<g>
		<circle fill="#E5E5E5" cx="635.4" cy="613.5" r="82.1"/>
		<path fill="#E5E5E5" d="M905.7,698.6V272.8l-210.6-58.4v-63.7H577.8v63.7l-210.6,58.4v428.6l268.2,62.4L905.7,698.6z M889.2,617.2
			c0,27.4-22.2,49.6-49.6,49.6S790,644.6,790,617.2c0-27.4,22.2-49.6,49.6-49.6S889.2,589.9,889.2,617.2z M659.9,260.5l213.3,58.6
			v162.1l-213.3-58.6V260.5z M398.7,319.2l213.3-58.6v162.1l-213.3,58.6V319.2z M433.3,665.8c-27.4,0-49.6-22.2-49.6-49.6
			c0-27.4,22.2-49.6,49.6-49.6c27.4,0,49.6,22.2,49.6,49.6C482.9,643.6,460.7,665.8,433.3,665.8z M536.2,613.5
			c0-54.8,44.4-99.2,99.2-99.2c54.8,0,99.2,44.4,99.2,99.2c0,54.8-44.4,99.2-99.2,99.2C580.6,712.7,536.2,668.3,536.2,613.5z"/>
		<polygon fill="#E5E5E5" points="635.3,986.7 635.4,986.7 662.8,970.6 916.4,822 905.7,728.6 635.4,798 367.2,731.7 356.5,822 
			634.3,987.3 		"/>
	</g>
</g>
</svg>
