<?xml version="1.0" encoding="utf-8"?>
<!-- Generator: Adobe Illustrator 17.1.0, SVG Export Plug-In . SVG Version: 6.00 Build 0)  -->
<!DOCTYPE svg PUBLIC "-//W3C//DTD SVG 1.1//EN" "http://www.w3.org/Graphics/SVG/1.1/DTD/svg11.dtd">
<svg version="1.1" xmlns="http://www.w3.org/2000/svg" xmlns:xlink="http://www.w3.org/1999/xlink" x="0px" y="0px"
	 viewBox="0 0 1270.1 1139.1" enable-background="new 0 0 1270.1 1139.1" xml:space="preserve">
<g id="color">
</g>
<g id="Capa_4" display="none">
</g>
<g id="Capa_3">
	<g>
		<rect x="556.5" y="754.8" fill="#E5E5E5" width="158.8" height="296.4"/>
		<path fill="#E5E5E5" d="M396.9,740.8h476.5V606.2l-136-350.8V135.6c0,0-6.4-20.5-32.2-35.3c-24.2-13.9-50-14-69.5-14
			c-19.5,0-45.3,0.1-69.5,14c-25.8,14.8-32.5,35.3-32.5,35.3v119.9L396.9,606.2V740.8z"/>
		<path fill="#E5E5E5" d="M515.3,183.4H349.1c0,0-33.7-0.3-55.9,16.2c-19.3,14.3-23.7,34.3-24.7,42.3h246.8V183.4z"/>
		<polygon fill="#E5E5E5" points="381.8,597.4 515.3,255.5 268.2,255.5 268.2,338.6 361.6,597.4 361.6,755.1 268.2,903.3 
			268.2,930.5 309.4,930.5 309.4,990.1 541.8,990.1 541.8,754.8 381.5,754.9 		"/>
		<path fill="#E5E5E5" d="M977.8,199.6c-22.2-16.5-55.9-16.2-55.9-16.2H755.8v58.5h246.8C1001.5,233.8,997.1,213.9,977.8,199.6z"/>
		<polygon fill="#E5E5E5" points="1002.8,338.6 1002.8,255.5 755.8,255.5 889.2,597.4 889.6,754.9 729.3,754.8 729.3,990.1 
			961.7,990.1 961.7,930.5 1002.8,930.5 1002.8,903.3 909.5,755.1 909.5,597.4 		"/>
	</g>
</g>
</svg>
