<?xml version="1.0" encoding="utf-8"?>
<!-- Generator: Adobe Illustrator 17.1.0, SVG Export Plug-In . SVG Version: 6.00 Build 0)  -->
<!DOCTYPE svg PUBLIC "-//W3C//DTD SVG 1.1//EN" "http://www.w3.org/Graphics/SVG/1.1/DTD/svg11.dtd">
<svg version="1.1" xmlns="http://www.w3.org/2000/svg" xmlns:xlink="http://www.w3.org/1999/xlink" x="0px" y="0px"
	 viewBox="0 0 1270.1 1139.1" enable-background="new 0 0 1270.1 1139.1" xml:space="preserve">
<g id="color">
</g>
<g id="Capa_4" display="none">
</g>
<g id="Capa_3">
	<g>
		<g>
			<rect x="218.4" y="166.7" fill="#E5E5E5" width="204.8" height="47.4"/>
		</g>
		<g>
			<rect x="532.5" y="166.7" fill="#E5E5E5" width="204.8" height="47.4"/>
		</g>
		<g>
			<rect x="849.8" y="166.7" fill="#E5E5E5" width="204.8" height="47.4"/>
		</g>
		<g>
			<rect x="238.4" y="366.7" fill="#E5E5E5" width="166.3" height="381"/>
		</g>
		<g>
			<polygon fill="#E5E5E5" points="238.4,879.8 321.5,989.1 404.7,879.8 404.7,830.5 238.4,830.5 			"/>
		</g>
		<g>
			<rect x="238.4" y="238.6" fill="#E5E5E5" width="166.3" height="45.7"/>
		</g>
		<g>
			<polygon fill="#E5E5E5" points="552.5,879.8 635.7,989.1 718.9,879.8 718.9,830.5 552.5,830.5 			"/>
		</g>
		<g>
			<rect x="552.5" y="366.7" fill="#E5E5E5" width="166.3" height="381"/>
		</g>
		<g>
			<rect x="552.5" y="238.6" fill="#E5E5E5" width="166.3" height="45.7"/>
		</g>
		<g>
			<rect x="869.8" y="238.6" fill="#E5E5E5" width="166.3" height="45.7"/>
		</g>
		<g>
			<rect x="869.8" y="366.7" fill="#E5E5E5" width="166.3" height="381"/>
		</g>
		<g>
			<polygon fill="#E5E5E5" points="869.8,879.8 952.9,989.1 1036.1,879.8 1036.1,830.5 869.8,830.5 			"/>
		</g>
		<g>
			<rect x="183.5" y="772.1" fill="#E5E5E5" width="905" height="33.9"/>
		</g>
		<g>
			<polygon fill="#E5E5E5" points="183.5,308.1 183.5,341.9 238.4,341.9 238.4,342 404.7,342 404.7,341.9 552.5,341.9 552.5,342 
				718.9,342 718.9,341.9 869.8,341.9 869.8,342 1036.1,342 1036.1,341.9 1088.5,341.9 1088.5,308.1 			"/>
		</g>
	</g>
</g>
</svg>
