<?xml version="1.0" encoding="utf-8"?>
<!-- Generator: Adobe Illustrator 17.1.0, SVG Export Plug-In . SVG Version: 6.00 Build 0)  -->
<!DOCTYPE svg PUBLIC "-//W3C//DTD SVG 1.1//EN" "http://www.w3.org/Graphics/SVG/1.1/DTD/svg11.dtd">
<svg version="1.1" xmlns="http://www.w3.org/2000/svg" xmlns:xlink="http://www.w3.org/1999/xlink" x="0px" y="0px"
	 viewBox="0 0 1270.1 1139.1" enable-background="new 0 0 1270.1 1139.1" xml:space="preserve">
<g id="color">
</g>
<g id="Capa_4" display="none">
</g>
<g id="Capa_3">
	<g>
		<polygon fill="#E5E5E5" points="344.5,173.3 236.9,173.3 236.9,978.6 344.5,978.6 344.5,851 345,851 345,289.5 344.5,289.5 		"/>
		<polygon fill="#E5E5E5" points="945.3,851 1033.5,718.7 1033.5,422.9 945.3,289.5 		"/>
		<rect x="1193.6" y="461.6" fill="#E5E5E5" width="33.3" height="218.4"/>
		<polygon fill="#E5E5E5" points="90.5,473.4 90,473.4 90,663.9 90.5,663.9 90.5,744.5 174.5,744.5 174.5,396 90.5,396 		"/>
		<path fill="#E5E5E5" d="M355.8,851h579.3V289.5H355.8V851z M877.5,318.5h16.2v16.2h-16.2V318.5z M877.5,480.5h16.2v16.2h-16.2
			V480.5z M877.5,648.6h16.2v16.2h-16.2V648.6z M877.5,810.6h16.2v16.2h-16.2V810.6z M716.9,318.5h16.2v16.2h-16.2V318.5z
			 M716.9,480.5h16.2v16.2h-16.2V480.5z M716.9,648.6h16.2v16.2h-16.2V648.6z M716.9,810.6h16.2v16.2h-16.2V810.6z M558.2,318.5
			h16.2v16.2h-16.2V318.5z M558.2,480.5h16.2v16.2h-16.2V480.5z M558.2,648.6h16.2v16.2h-16.2V648.6z M558.2,810.6h16.2v16.2h-16.2
			V810.6z M397.2,318.5h16.2v16.2h-16.2V318.5z M397.2,480.5h16.2v16.2h-16.2V480.5z M397.2,648.6h16.2v16.2h-16.2V648.6z
			 M397.2,810.6h16.2v16.2h-16.2V810.6z"/>
		<rect x="51.8" y="473.4" fill="#E5E5E5" width="27.4" height="190.4"/>
		<rect x="1097.4" y="396" fill="#E5E5E5" width="86.1" height="348.5"/>
		<rect x="1043.7" y="473.4" fill="#E5E5E5" width="44.1" height="190.4"/>
		<polygon fill="#E5E5E5" points="183.7,733.7 226.7,780 226.7,359.9 183.7,407.5 		"/>
	</g>
</g>
</svg>
