<?xml version="1.0" encoding="utf-8"?>
<!-- Generator: Adobe Illustrator 17.1.0, SVG Export Plug-In . SVG Version: 6.00 Build 0)  -->
<!DOCTYPE svg PUBLIC "-//W3C//DTD SVG 1.1//EN" "http://www.w3.org/Graphics/SVG/1.1/DTD/svg11.dtd">
<svg version="1.1" xmlns="http://www.w3.org/2000/svg" xmlns:xlink="http://www.w3.org/1999/xlink" x="0px" y="0px"
	 viewBox="0 0 1270.1 1139.1" enable-background="new 0 0 1270.1 1139.1" xml:space="preserve">
<g id="color">
</g>
<g id="Capa_4" display="none">
</g>
<g id="Capa_3">
	<g>
		<g>
			<path fill="#E5E5E5" d="M266.8,815.8v38.2c0,0,11.3,44.8,62.2,77.4c49.2,31.5,103.1,35.9,103.1,35.9H632h199.9
				c0,0,54-4.5,103.1-35.9c50.9-32.6,62.2-77.4,62.2-77.4v-38.2H632H266.8z"/>
		</g>
		<g>
			<polygon fill="#E5E5E5" points="372.9,574.9 372.9,728.9 412.1,728.9 389.2,639.2 380.2,640.5 376.4,618.7 384.4,617 			"/>
		</g>
		<g>
			<polygon fill="#E5E5E5" points="466.1,728.9 609.3,728.9 599.3,634.3 588.9,634.3 588.9,610 596.5,610 583.4,494.2 573.6,494.2 
				573.6,467.9 580.6,467.9 575,415.2 557,415.2 557,377.7 610.1,377.7 610.1,358.4 411,358.4 412.8,375.5 466.2,368 471,403.4 
				454.4,405.5 457.2,459.6 463.4,458.9 466.9,485.9 457.9,488 461.3,603.1 468.7,601.7 472.4,628.8 463.4,630.1 			"/>
		</g>
		<g>
			<polygon fill="#E5E5E5" points="883.6,639.2 860.7,728.9 899.9,728.9 899.9,574.9 888.5,617 896.4,618.7 892.6,640.5 			"/>
		</g>
		<g>
			<polygon fill="#E5E5E5" points="662.8,377.7 715.8,377.7 715.8,415.2 697.8,415.2 692.2,467.9 699.2,467.9 699.2,494.2 
				689.5,494.2 676.3,610 683.9,610 683.9,634.3 673.5,634.3 663.5,728.9 806.8,728.9 809.4,630.1 800.4,628.8 804.1,601.7 
				811.5,603.1 815,488 806,485.9 809.4,458.9 815.7,459.6 818.4,405.5 801.8,403.4 806.6,368 860,375.5 861.9,358.4 662.8,358.4 
							"/>
		</g>
		<g>
			<path fill="#E5E5E5" d="M506,289.3c-2.8-2.8-10.4-0.7-10.4-0.7l-15.8,3.6V346h28.3V297C508.1,297,508.8,292.1,506,289.3z"/>
		</g>
		<g>
			<path fill="#E5E5E5" d="M494.5,235.3c0,0,13.6-3.5,18.5-4.9c4.7-1.3,17.3-0.7,30.5,11.1s13.2,25,13.2,25V346h53.4v-89.3
				c0-14.4,11.6-26.2,26-26.3h0.8c14.4,0.2,26,11.9,26,26.3V346h53.4v-79.6c0,0,0-13.2,13.2-25s25.8-12.4,30.5-11.1
				c4.9,1.4,18.5,4.9,18.5,4.9c-16.4-15.3-45.4-27.6-81.1-34.1v-10.4h28.2v-20H547.4v20h28.2v10.4
				C539.9,207.8,510.9,220,494.5,235.3z"/>
		</g>
		<g>
			<path fill="#E5E5E5" d="M793.1,346v-53.8l-15.8-3.6c0,0-7.6-2.1-10.4,0.7c-2.8,2.8-2.1,7.6-2.1,7.6V346H793.1z"/>
		</g>
		<g>
			<polygon fill="#E5E5E5" points="793.1,738 667.7,738 667.7,760.8 660.1,760.8 660.1,795.5 612.8,795.5 612.8,760.8 605.2,760.8 
				605.2,738 479.8,738 479.8,806.9 793.1,806.9 			"/>
		</g>
		<g>
			<path fill="#E5E5E5" d="M637.4,238h-2.5c-9.8,0-17.7,7.9-17.7,17.7v128.6h-53.5v24.4h16.8l7.1,65.5h-7.4v12.9h8.8l13.8,128h-8.3
				v12.9h9.7l12.4,114.6h-6.4v12.9h7.3l0.2,35.5h37.8l-0.1-35.5h7.2v-12.9h-6.4l12.4-114.6h9v-12.9H670l13.8-128h8.8v-12.9h-7.4
				l7.1-65.5h16v-24.4H655V255.7C655,245.9,647.1,238,637.4,238z"/>
		</g>
		<g>
			<path fill="#E5E5E5" d="M290.7,750.3l3.4,12.5l7.1-2l8.9,30.2l36.3-10.5l-8.7-29.7l6.9-1.9l-3.4-12.5l-6.7,1.9l-21-118.7l8.6-2.4
				l-3.4-12.5l-7.5,2.1l-23.4-132.2l9.8-2.7l-3.4-12.5l-8.6,2.4l-9.9-55.9l-2-12.4l14.2-3.9l-6.5-23.6l-51.6,14.2l-9.5-35.2
				c-2.6-9.7,3.1-19.7,12.8-22.4l135.7-37.1c-7.6,9.9-11.3,22.7-9.1,35.9l10.7,65.6l-52.9,7.8l3.5,24.2l16.2-2.4l16.9,65.1l-7.6,1.1
				l1.9,12.8l9-1.3L390,620.5l-8.2,1.2l1.9,12.8l9.6-1.4l29.1,112.3l-6.4,0.9l1.9,12.8l7.1-1l5,32.9l37.4-5.5l-4.9-32.9l7.3-1.1
				l-1.9-12.8l-6.7,1l-4.4-115.9l9.3-1.4l-1.9-12.8l-7.9,1.2l-5-130.3l8.4-1.2l-1.9-12.8l-7,1l-2.6-67.2l15.9-2.3l-3.5-24.2
				l-52.9,7.8l-7.5-56.8c-1.5-11.6,6-22.4,17.4-25.1l1-0.2l0.1,46.2h34.9l-0.2-54.2l51.5-11.9c5.2-1.2,10.2,2.8,10.2,8.1l0.1,58.3
				H550l-0.3-74.4c-0.1-22.1-21-38.2-42.4-32.5l-58.6,15.5c-7.3-12.4-22.3-19.3-37.4-15.1l-197.4,54.9c-24,6.7-37.9,31.7-31,55.6
				l11.7,40L142,404.5l6.5,23.6l15-4.1l3.3,7.7l23.2,56.5l-7.7,2.5l3.4,12.5l9.2-3l51.2,124.5l-7.7,2.1l3.4,12.5l9.2-2.5l46,111.8
				L290.7,750.3z"/>
		</g>
		<g>
			<path fill="#E5E5E5" d="M1077.7,390.3l11.8-40.3c7-23.9-7-48.9-31-55.6L861,239.4c-15.1-4.2-30.1,2.8-37.4,15.1L765,239
				c-21.4-5.7-42.4,10.4-42.4,32.5l-0.3,74.4h34.9l0.1-58.3c0-5.4,5-9.3,10.2-8.1l51.5,11.9l-0.2,54.2h34.9l0.1-46.2l1,0.2
				c11.4,2.6,18.9,13.5,17.4,25.1l-7.5,57l-54.1-7.9l-3.5,24.2l15.9,2.3l-2.6,67.2l-7-1l-1.9,12.8l8.4,1.2l-5,130.3l-7.9-1.2
				l-1.9,12.8l9.3,1.4L810,739.7l-6.7-1l-1.9,12.8l7.3,1.1l-4.9,32.9l37.4,5.5l5-32.9l7.1,1l1.9-12.8l-6.4-0.9l29.1-112.3l9.6,1.4
				l1.9-12.8l-8.2-1.2l32.7-126.2l9,1.3l1.9-12.8l-7.6-1.1l16.9-65.1l16.2,2.4l3.5-24.2l-51.7-7.6l10.7-65.7
				c2.1-13.2-1.5-26-9.1-35.9l135.7,37.1c9.7,2.7,15.4,12.7,12.8,22.4l-9.6,35.6L989.7,366l-6.5,23.6l12.4,3.4l-2.1,12.9l-9.9,55.9
				l-8.6-2.4l-3.4,12.5l9.8,2.7l-23.4,132.2l-7.5-2.1l-3.4,12.5l8.6,2.4l-21,118.7l-6.7-1.9l-3.4,12.5l6.9,1.9l-8.7,29.7L959,791
				l8.9-30.2l7.1,2l3.4-12.5l-6.4-1.8l46-111.8l9.2,2.5l3.4-12.5l-7.7-2.1l51.2-124.5l9.2,3l3.4-12.5l-7.7-2.5l23.2-56.5l3.5-8.2
				l16.7,4.6l6.5-23.6L1077.7,390.3z"/>
		</g>
	</g>
</g>
</svg>
