<?xml version="1.0" encoding="utf-8"?>
<!-- Generator: Adobe Illustrator 17.1.0, SVG Export Plug-In . SVG Version: 6.00 Build 0)  -->
<!DOCTYPE svg PUBLIC "-//W3C//DTD SVG 1.1//EN" "http://www.w3.org/Graphics/SVG/1.1/DTD/svg11.dtd">
<svg version="1.1" xmlns="http://www.w3.org/2000/svg" xmlns:xlink="http://www.w3.org/1999/xlink" x="0px" y="0px"
	 viewBox="0 0 1270.1 1139.1" enable-background="new 0 0 1270.1 1139.1" xml:space="preserve">
<g id="color">
</g>
<g id="Capa_4" display="none">
</g>
<g id="Capa_3">
	<g>
		<rect x="98" y="490" fill="#E5E5E5" width="165.2" height="101.1"/>
		<g>
			<path fill="#E5E5E5" d="M569.8,294.2h-86.9c0,0-24.3-1.5-42.1,13.9c-20.8,18-19.4,43.5-19.4,43.5V732c0,0-1.4,25.4,19.4,43.5
				c17.8,15.4,42.1,13.9,42.1,13.9h86.9V294.2z"/>
			<path fill="#E5E5E5" d="M1142.7,351.5c0,0,1.4-25.4-19.4-43.5c-17.8-15.4-42.1-13.9-42.1-13.9h-86.9v495.2h86.9
				c0,0,24.3,1.5,42.1-13.9c20.8-18,19.4-43.5,19.4-43.5V351.5z"/>
			<rect x="592" y="499.5" fill="#E5E5E5" width="378.7" height="36.1"/>
			<rect x="592" y="550.8" fill="#E5E5E5" width="378.7" height="36.1"/>
			<rect x="592" y="600.7" fill="#E5E5E5" width="378.7" height="36.1"/>
			<rect x="592" y="650.7" fill="#E5E5E5" width="378.7" height="36.1"/>
			<rect x="592" y="700.6" fill="#E5E5E5" width="378.7" height="36.1"/>
			<rect x="592" y="750.6" fill="#E5E5E5" width="378.7" height="36.1"/>
			<polygon fill="#E5E5E5" points="592,484.2 766.8,484.2 795.9,484.2 970.7,484.2 970.7,450.9 934.6,450.9 970.7,398.2 
				795.9,398.2 766.8,398.2 592,398.2 628,450.9 592,450.9 			"/>
			<polygon fill="#E5E5E5" points="592,296.9 592,382.9 970.7,382.9 970.7,296.9 934.6,296.9 987.3,242.4 987.3,140.2 782,140.2 
				780.6,140.2 575.3,140.2 575.3,242.4 628,296.9 			"/>
			<polygon fill="#E5E5E5" points="340.9,489.8 282.6,489.8 282.6,591 340.9,591 340.9,617.4 399.1,685.4 399.1,541.1 399.1,539.7 
				399.1,395.4 340.9,463.4 			"/>
			<rect x="522.6" y="928.1" fill="#E5E5E5" width="517.4" height="80.5"/>
			<path fill="#E5E5E5" d="M777.9,908.7c5.3,0,8.3,0,8.3,0c39,0,203.3,0,228.9,0c-97.1-20.8-104-83.2-104-83.2H786.2h-8.3H653
				c0,0-6.9,62.4-104,83.2C574.6,908.7,738.9,908.7,777.9,908.7z"/>
		</g>
	</g>
</g>
</svg>
