<?xml version="1.0" encoding="utf-8"?>
<!-- Generator: Adobe Illustrator 17.1.0, SVG Export Plug-In . SVG Version: 6.00 Build 0)  -->
<!DOCTYPE svg PUBLIC "-//W3C//DTD SVG 1.1//EN" "http://www.w3.org/Graphics/SVG/1.1/DTD/svg11.dtd">
<svg version="1.1" xmlns="http://www.w3.org/2000/svg" xmlns:xlink="http://www.w3.org/1999/xlink" x="0px" y="0px"
	 viewBox="0 0 1270.1 1139.1" enable-background="new 0 0 1270.1 1139.1" xml:space="preserve">
<g id="color">
</g>
<g id="Capa_4" display="none">
</g>
<g id="Capa_3">
	<g>
		<g>
			<rect x="143.3" y="368.4" fill="#E5E5E5" width="28.9" height="265.5"/>
			<rect x="955.9" y="388.7" fill="#E5E5E5" width="30.1" height="228.3"/>
			<rect x="181.5" y="313.2" fill="#E5E5E5" width="102.7" height="363"/>
			<rect x="995.9" y="321" fill="#E5E5E5" width="78.1" height="355.1"/>
			<rect x="148.8" y="676.1" fill="#E5E5E5" width="171.6" height="201.7"/>
			<rect x="956.2" y="676.1" fill="#E5E5E5" width="171.6" height="201.7"/>
			<rect x="148.8" y="888.6" fill="#E5E5E5" width="989" height="98.1"/>
			<polygon fill="#E5E5E5" points="296.2,626 375.6,785.2 375.6,212.5 296.2,379.1 			"/>
			<g>
				<path fill="#E5E5E5" d="M484.9,242.7"/>
			</g>
			<g>
				<rect x="390.5" y="172.3" fill="#E5E5E5" width="33.8" height="660.6"/>
			</g>
			<rect x="857.4" y="172.3" fill="#E5E5E5" width="84.9" height="660.6"/>
		</g>
		<path fill="#E5E5E5" d="M438.6,195.6v612.4H844V195.6H438.6z M499.9,751.2h-18.4v-16.9h18.4V751.2z M499.9,622h-18.4v-16.9h18.4
			V622z M499.9,499.9h-18.4V483h18.4V499.9z M499.9,375.9h-18.4V359h18.4V375.9z M499.9,267.4h-18.4v-16.9h18.4V267.4z M652.3,751.2
			h-18.4v-16.9h18.4V751.2z M652.3,622h-18.4v-16.9h18.4V622z M652.3,499.9h-18.4V483h18.4V499.9z M652.3,375.9h-18.4V359h18.4
			V375.9z M652.3,267.4h-18.4v-16.9h18.4V267.4z M804.6,751.2h-18.4v-16.9h18.4V751.2z M804.6,622h-18.4v-16.9h18.4V622z
			 M804.6,499.9h-18.4V483h18.4V499.9z M804.6,375.9h-18.4V359h18.4V375.9z M804.6,267.4h-18.4v-16.9h18.4V267.4z"/>
	</g>
</g>
</svg>
