<?xml version="1.0" encoding="utf-8"?>
<!-- Generator: Adobe Illustrator 17.1.0, SVG Export Plug-In . SVG Version: 6.00 Build 0)  -->
<!DOCTYPE svg PUBLIC "-//W3C//DTD SVG 1.1//EN" "http://www.w3.org/Graphics/SVG/1.1/DTD/svg11.dtd">
<svg version="1.1" xmlns="http://www.w3.org/2000/svg" xmlns:xlink="http://www.w3.org/1999/xlink" x="0px" y="0px"
	 viewBox="0 0 1270.1 1139.1" enable-background="new 0 0 1270.1 1139.1" xml:space="preserve">
<g id="color">
</g>
<g id="Capa_4" display="none">
</g>
<g id="Capa_3">
	<g>
		<polygon fill="#E5E5E5" points="880.1,887.2 880.1,984.1 554.4,984.1 554.4,909.1 116.6,909.1 116.6,1041.3 1137.6,1041.3 
			1137.6,887.2 		"/>
		<path fill="#E5E5E5" d="M1075.7,662L1075.7,662c-3.1-33.8-30.3-60.4-64.2-62.7l-0.6,0h-4.8l-0.6,0c-33.9,2.3-61.1,28.9-64.2,62.7
			v0v213.6h134.3V662z"/>
		<path fill="#E5E5E5" d="M785.7,666.1L785.7,666.1c-3.1-33.8-30.3-60.4-64.2-62.7l-0.6,0h-4.8l-0.6,0
			c-33.9,2.3-61.1,28.9-64.2,62.7v0v306.7h134.3V666.1z"/>
		<polygon fill="#E5E5E5" points="417.1,279.6 393.5,897.6 490.4,897.6 466.8,279.6 		"/>
		<polygon fill="#E5E5E5" points="266.2,167 207.6,167 179.7,897.6 294.1,897.6 		"/>
		<path fill="#E5E5E5" d="M615.7,788.1c0-3.4,2.7-6.1,6.1-6.1h17.7v-27.3h-29.6c-11.9,0-21.5,9.6-21.5,21.5v196.5h27.3V788.1z"/>
		<path fill="#E5E5E5" d="M875,852.3h55.1V825h-49.3v-69.5c0-11.9-9.6-21.5-21.5-21.5h-62.4v27.3h50.6c3.4,0,6.1,2.7,6.1,6.1v63.4
			C853.5,842.6,863.1,852.3,875,852.3z"/>
		<path fill="#E5E5E5" d="M731.9,569.9c0-3.4,2.7-6.1,6.1-6.1h82.9c3.4,0,6.1,2.7,6.1,6.1v103.4c0,11.9,9.6,21.5,21.5,21.5h81.7
			v-27.3h-69.8c-3.4,0-6.1-2.7-6.1-6.1V558c0-11.9-9.6-21.5-21.5-21.5H726.1c-11.9,0-21.5,9.6-21.5,21.5v35.9h27.3V569.9z"/>
		<path fill="#E5E5E5" d="M254.9,121.1c7.7-7.9,17.6-12.9,27.7-19.2c17.5-10.8,23.5-19.1,29.2-28c13-20.2,7.4-46.2,7.4-46.2
			s-2.6,5.5-4,8.4s-6.2,12.5-13.3,21.1c-7.1,8.5-21.2,16.2-27.5,21s-16,9-29.7,27.5c-13.8,18.5-9,44.5-9,44.5
			S238.6,137.9,254.9,121.1z"/>
		<path fill="#E5E5E5" d="M458.9,232.4c7.7-7.9,17.6-12.9,27.7-19.2c17.5-10.8,23.5-19.1,29.2-28c13-20.2,7.4-46.2,7.4-46.2
			s-2.6,5.5-4,8.4c-1.5,2.8-6.2,12.5-13.3,21.1c-7.1,8.5-21.2,16.2-27.5,21s-16,9-29.7,27.5c-13.8,18.5-9,44.5-9,44.5
			S442.6,249.2,458.9,232.4z"/>
	</g>
</g>
</svg>
