<?xml version="1.0" encoding="utf-8"?>
<!-- Generator: Adobe Illustrator 17.1.0, SVG Export Plug-In . SVG Version: 6.00 Build 0)  -->
<!DOCTYPE svg PUBLIC "-//W3C//DTD SVG 1.1//EN" "http://www.w3.org/Graphics/SVG/1.1/DTD/svg11.dtd">
<svg version="1.1" xmlns="http://www.w3.org/2000/svg" xmlns:xlink="http://www.w3.org/1999/xlink" x="0px" y="0px"
	 viewBox="0 0 1270.1 1139.1" enable-background="new 0 0 1270.1 1139.1" xml:space="preserve">
<g id="color">
</g>
<g id="Capa_4" display="none">
</g>
<g id="Capa_3">
	<g>
		<circle fill="#E5E5E5" cx="1019.4" cy="758" r="30.5"/>
		<circle fill="#E5E5E5" cx="436.6" cy="758" r="30.5"/>
		<polygon fill="#E5E5E5" points="1015,283.1 105.4,283.1 105.4,316.8 454.6,316.8 540.9,476.7 631.1,515.3 666.6,594.3 
			1018.9,498.1 1146.3,520.5 1181.5,389.9 		"/>
		<path fill="#E5E5E5" d="M1020.2,606.9c-83.4,0-151.1,67.6-151.1,151.1s67.6,151.1,151.1,151.1s151.1-67.6,151.1-151.1
			S1103.6,606.9,1020.2,606.9z M1019.8,832.6c-41,0-74.2-33.2-74.2-74.2s33.2-74.2,74.2-74.2c41,0,74.2,33.2,74.2,74.2
			S1060.7,832.6,1019.8,832.6z"/>
		<path fill="#E5E5E5" d="M437.4,606.9c-83.4,0-151.1,67.6-151.1,151.1S354,909.1,437.4,909.1c83.4,0,151.1-67.6,151.1-151.1
			S520.9,606.9,437.4,606.9z M437,832.6c-41,0-74.2-33.2-74.2-74.2s33.2-74.2,74.2-74.2c41,0,74.2,33.2,74.2,74.2
			S478,832.6,437,832.6z"/>
		<path fill="#E5E5E5" d="M525.4,511.7c0,0-218.1,18.3-252.2,43.1c-34.3,25,5.7,63.5,5.7,63.5v84.4c0,0,9.5-31.7,42.7-64.1
			c36.8-36,74.3-45.6,109.8-45.6s67,6.3,101.3,29.8c39.4,27.1,58,76.9,58,76.9h20.1h211.8h9.9h31.8c0,0,15.8-40.9,47.7-66.9
			c41.7-34,76.3-37.5,76.3-37.5v-70L659,616.4l-37.3-86.6L562,502.8"/>
		<path fill="#E5E5E5" d="M471.9,385.3h-125l-22.1,78.9l-196.6,0.9v28.2v37.1V547h54.6v270.8h82.3V702.7H279l3.6-144.7L569,506
			l-40.6-18.8L471.9,385.3z M131.9,489.4h46.3H131.9z M182,489.4h64.1H182z M430.8,506.8l-112.1,32.7l34.2-145.3h77.9V506.8z"/>
	</g>
</g>
</svg>
