<?xml version="1.0" encoding="utf-8"?>
<!-- Generator: Adobe Illustrator 17.1.0, SVG Export Plug-In . SVG Version: 6.00 Build 0)  -->
<!DOCTYPE svg PUBLIC "-//W3C//DTD SVG 1.1//EN" "http://www.w3.org/Graphics/SVG/1.1/DTD/svg11.dtd">
<svg version="1.1" xmlns="http://www.w3.org/2000/svg" xmlns:xlink="http://www.w3.org/1999/xlink" x="0px" y="0px"
	 viewBox="0 0 1270.1 1139.1" enable-background="new 0 0 1270.1 1139.1" xml:space="preserve">
<g id="color">
</g>
<g id="Capa_4" display="none">
</g>
<g id="Capa_3">
	<g>
		<polygon fill="#E5E5E5" points="36.1,505.4 165,618.1 165,487.4 93.6,424.3 		"/>
		<polygon fill="#E5E5E5" points="324.1,415.7 292.1,424.1 292.1,742.7 324.1,749.9 324.1,750.1 406.7,968.2 406.7,191.5 
			324.1,415.5 		"/>
		<rect x="1026.4" y="297.5" fill="#E5E5E5" width="106.9" height="593"/>
		<rect x="174.2" y="314.6" fill="#E5E5E5" width="108.9" height="575.9"/>
		<polygon fill="#E5E5E5" points="898.7,191.4 898.4,968.2 993.4,791.3 1017.3,791.3 1017.3,368.2 993.4,368.2 		"/>
		<rect x="1142.4" y="368.2" fill="#E5E5E5" width="54" height="423.1"/>
		<path fill="#E5E5E5" d="M417.6,968.2h470.8V191.5H417.6V968.2z M826.5,248h16.2v16h-16.2V248z M826.5,414.5h16.2v16h-16.2V414.5z
			 M826.5,574.1h16.2v16h-16.2V574.1z M826.5,740.6h16.2v16h-16.2V740.6z M826.5,896.9h16.2v16h-16.2V896.9z M656.5,248h16.3v16
			h-16.3V248z M656.5,414.5h16.3v16h-16.3V414.5z M656.5,574.1h16.3v16h-16.3V574.1z M656.5,740.6h16.3v16h-16.3V740.6z
			 M656.5,896.9h16.3v16h-16.3V896.9z M466.5,248h16.2v16h-16.2V248z M466.5,414.5h16.2v16h-16.2V414.5z M466.5,574.1h16.2v16h-16.2
			V574.1z M466.5,740.6h16.2v16h-16.2V740.6z M466.5,896.9h16.2v16h-16.2V896.9z"/>
	</g>
</g>
</svg>
