<?xml version="1.0" encoding="utf-8"?>
<!-- Generator: Adobe Illustrator 17.1.0, SVG Export Plug-In . SVG Version: 6.00 Build 0)  -->
<!DOCTYPE svg PUBLIC "-//W3C//DTD SVG 1.1//EN" "http://www.w3.org/Graphics/SVG/1.1/DTD/svg11.dtd">
<svg version="1.1" xmlns="http://www.w3.org/2000/svg" xmlns:xlink="http://www.w3.org/1999/xlink" x="0px" y="0px"
	 viewBox="0 0 1270.1 1139.1" enable-background="new 0 0 1270.1 1139.1" xml:space="preserve">
<g id="color">
</g>
<g id="Capa_4" display="none">
</g>
<g id="Capa_3">
	<g>
		<polygon fill="#E5E5E5" points="878.6,893.9 751.3,647 290.1,647 420.9,841.3 871.4,936.6 		"/>
		<polygon fill="#E5E5E5" points="155,871.1 1111.9,1073.2 1117.9,1039.5 160.9,837.4 		"/>
		<polygon fill="#E5E5E5" points="862.3,971.8 866.3,950.6 424.3,856.2 424.3,878.2 		"/>
		<polygon fill="#E5E5E5" points="164.6,822.8 363.3,865.2 363.3,843.2 169.1,801.7 		"/>
		<polygon fill="#E5E5E5" points="921.3,962.3 917.2,983.5 1121.5,1024.9 1126,1003.8 		"/>
		<polygon fill="#E5E5E5" points="419.8,598.3 419.8,167.7 182.4,167.7 182.4,420.5 316.2,598.3 		"/>
		<polygon fill="#E5E5E5" points="856.1,361.8 690.9,168.5 469.6,168.5 469.6,596.8 749.4,596.8 749.4,541 856.1,541 		"/>
		<path fill="#E5E5E5" d="M218.3,604.2v45.4H248l134.6,195.6v24.5l23.1,4.7v-31.4L262.5,632.1H760l136.1,261l-16,82.1l19.7,4
			l17.5-86.5L779.5,626.9L779,573h109.3V348.4L705.3,135H147.7v295.2l130.1,174H218.3z M454.4,154h241.3l173.6,202.3V554H760v56.5
			H454.4V154z M166.6,423.2V154h267.7v456.6H307.2L166.6,423.2z"/>
	</g>
</g>
</svg>
