<?xml version="1.0" encoding="utf-8"?>
<!-- Generator: Adobe Illustrator 17.1.0, SVG Export Plug-In . SVG Version: 6.00 Build 0)  -->
<!DOCTYPE svg PUBLIC "-//W3C//DTD SVG 1.1//EN" "http://www.w3.org/Graphics/SVG/1.1/DTD/svg11.dtd">
<svg version="1.1" xmlns="http://www.w3.org/2000/svg" xmlns:xlink="http://www.w3.org/1999/xlink" x="0px" y="0px"
	 viewBox="0 0 1270.1 1139.1" enable-background="new 0 0 1270.1 1139.1" xml:space="preserve">
<g id="color">
</g>
<g id="Capa_4" display="none">
</g>
<g id="Capa_3">
	<g>
		<g>
			<polygon fill="#E5E5E5" points="918.5,217.7 807.3,891 657.8,891 369,891 219.5,891 108.3,217.7 85.3,226.9 201.1,928.2 
				201.6,928.1 201.6,928.1 369,928.1 657.8,928.1 825.2,928.1 825.2,928.1 825.7,928.2 941.5,226.9 			"/>
			<path fill="#E5E5E5" d="M797.6,865.5c0,0,83.5-504.5,82.9-504.5c-4.1,0-6.9-1.9-11-4.8c-4.2-2.9-7.7-6.4-14.6-6.4
				c-7.6,0-10.9,2.5-14.6,6.4c-3.3,3.1-5.4,4.9-13.2,4.8c-4.1,0-8.1-1.9-12.3-4.8c-4.2-2.9-7.7-6.4-14.6-6.4
				c-7.6,0-12.2,3.5-14.4,6.1v-0.1c0,0.1-0.1,0.2-0.2,0.3c0,0,0,0,0,0v0c-0.8,1.4-3.6,4.8-13.2,4.8c-4.1,0-8.1-1.9-12.3-4.8
				c-4.2-2.9-7.7-6.4-14.6-6.4c-7.6,0-10.9,2.5-14.6,6.4c-3.3,3.1-5.4,4.9-13.2,4.8c-4.1,0-8.1-1.9-12.3-4.8
				c-4.2-2.9-7.7-6.4-14.6-6.4c-7.6,0-12.2,3.5-14.4,6.1v-0.1c0,0.1-0.1,0.2-0.2,0.3c0,0,0,0,0,0v0c-0.8,1.4-3.6,4.8-13.2,4.8
				c-4.1,0-8.1-1.9-12.3-4.8c-4.2-2.9-7.7-6.4-14.6-6.4c-7.6,0-10.9,2.5-14.6,6.4c-3.3,3.1-5.4,4.9-13.2,4.8
				c-4.1,0-8.1-1.9-12.3-4.8c-4.2-2.9-7.7-6.4-14.6-6.4c-7.7,0-12.3,3.6-14.4,6.2v-0.2c-0.3,0.8-2.6,5.2-13.4,5.2
				c-4.1,0-8.1-1.9-12.3-4.8c-4.2-2.9-7.7-6.4-14.6-6.4c-7.6,0-10.9,2.5-14.6,6.4c-3.3,3.1-5.4,4.9-13.2,4.8
				c-4.1,0-8.1-1.9-12.3-4.8c-4.2-2.9-7.7-6.4-14.6-6.4c-7.6,0-12.2,3.5-14.4,6.1v-0.1c0,0.1-0.1,0.2-0.2,0.3c0,0,0,0,0,0v0
				c-0.8,1.4-3.6,4.8-13.2,4.8c-4.1,0-8.1-1.9-12.3-4.8c-4.2-2.9-7.7-6.4-14.6-6.4c-7.6,0-10.9,2.5-14.6,6.4
				c-3.3,3.1-5.4,4.9-13.2,4.8c-4.1,0-8.1-1.9-12.3-4.8c-4.2-2.9-7.7-6.4-14.6-6.4c-7.6,0-12.2,3.5-14.4,6.1v-0.1
				c0,0.1-0.1,0.2-0.2,0.3c0,0,0,0,0,0v0c-0.8,1.4-3.6,4.8-13.2,4.8c-4.1,0-8.1-1.9-12.3-4.8c-4.2-2.9-7.7-6.4-14.6-6.4
				c-7.6,0-10.9,2.5-14.6,6.4c-3.3,3.1-5.4,4.9-13.2,4.8c-4.1,0-8.1-1.9-12.3-4.8c-4.2-2.9-7.7-6.4-14.6-6.4
				c-7.6,0-12.2,3.5-14.4,6.1v-0.1c0,0.1-0.1,0.2-0.2,0.3c0,0,0,0,0,0v0c-0.8,1.4-3.6,4.8-13.2,4.8c-4.1,0-8.1-1.9-12.3-4.8
				c-4.2-2.9-7.7-6.4-14.6-6.4c-7.6,0-10.9,2.5-14.6,6.4c-3.3,3.1-5.4,4.9-13.2,4.8c-4.1,0-8.1-1.9-12.3-4.8
				c-4.2-2.9-7.7-6.4-14.6-6.4c-1.2,0,85.6,515.7,85.6,515.7H797.6z"/>
		</g>
		<rect x="840.5" y="757.8" fill="#E5E5E5" width="63.5" height="33.2"/>
		<g>
			<path fill="#E5E5E5" d="M1004.7,693.4h-28.6c0,0-8-0.5-13.8,4.6c-6.8,5.9-6.4,14.3-6.4,14.3v125.1c0,0-0.5,8.4,6.4,14.3
				c5.8,5.1,13.8,4.6,13.8,4.6h28.6V693.4z"/>
			<path fill="#E5E5E5" d="M1193,712.2c0,0,0.5-8.4-6.4-14.3c-5.8-5.1-13.8-4.6-13.8-4.6h-28.6v162.7h28.6c0,0,8,0.5,13.8-4.6
				c6.8-5.9,6.4-14.3,6.4-14.3V712.2z"/>
			<rect x="1012" y="760.9" fill="#E5E5E5" width="124.5" height="11.9"/>
			<rect x="1012" y="777.7" fill="#E5E5E5" width="124.5" height="11.9"/>
			<rect x="1012" y="794.2" fill="#E5E5E5" width="124.5" height="11.9"/>
			<rect x="1012" y="810.6" fill="#E5E5E5" width="124.5" height="11.9"/>
			<rect x="1012" y="827" fill="#E5E5E5" width="124.5" height="11.9"/>
			<rect x="1012" y="843.4" fill="#E5E5E5" width="124.5" height="11.9"/>
			<polygon fill="#E5E5E5" points="1012,755.9 1069.5,755.9 1079,755.9 1136.5,755.9 1136.5,744.9 1124.6,744.9 1136.5,727.6 
				1079,727.6 1069.5,727.6 1012,727.6 1023.9,744.9 1012,744.9 			"/>
			<polygon fill="#E5E5E5" points="1012,694.3 1012,722.6 1136.5,722.6 1136.5,694.3 1124.6,694.3 1142,676.4 1142,642.8 
				1074.5,642.8 1074,642.8 1006.6,642.8 1006.6,676.4 1023.9,694.3 			"/>
			<polygon fill="#E5E5E5" points="929.5,757.7 910.4,757.7 910.4,791 929.5,791 929.5,799.6 948.7,822 948.7,774.6 948.7,774.1 
				948.7,726.7 929.5,749 			"/>
			<rect x="989.2" y="901.7" fill="#E5E5E5" width="170.1" height="26.4"/>
			<path fill="#E5E5E5" d="M1073.1,895.4c1.7,0,2.7,0,2.7,0c12.8,0,66.8,0,75.2,0c-31.9-6.8-34.2-27.4-34.2-27.4h-41h-2.7h-41
				c0,0-2.3,20.5-34.2,27.4C1006.3,895.4,1060.3,895.4,1073.1,895.4z"/>
		</g>
	</g>
</g>
</svg>
