<?xml version="1.0" encoding="utf-8"?>
<!-- Generator: Adobe Illustrator 17.1.0, SVG Export Plug-In . SVG Version: 6.00 Build 0)  -->
<!DOCTYPE svg PUBLIC "-//W3C//DTD SVG 1.1//EN" "http://www.w3.org/Graphics/SVG/1.1/DTD/svg11.dtd">
<svg version="1.1" xmlns="http://www.w3.org/2000/svg" xmlns:xlink="http://www.w3.org/1999/xlink" x="0px" y="0px"
	 viewBox="0 0 1270.1 1139.1" enable-background="new 0 0 1270.1 1139.1" xml:space="preserve">
<g id="color">
</g>
<g id="Capa_4" display="none">
</g>
<g id="Capa_3">
	<g>
		<g>
			<path fill="#E5E5E5" d="M1193.6,587.4v-69.2l-428.9-247L83.3,490.8v96.5h194.1v11.1h831.2v-11.1H1193.6z M458.4,587.4h469.1v11.1
				H458.4V587.4z"/>
			<polygon fill="#E5E5E5" points="845.4,766.7 537.8,766.7 537.8,740.3 230.2,740.3 230.2,766.7 229.8,766.7 229.8,828.3 
				230.2,828.3 230.2,853.9 537.8,853.9 537.8,828.3 845.4,828.3 845.4,853.9 1162.8,853.9 1162.8,740.3 845.4,740.3 			"/>
		</g>
		<path fill="#E5E5E5" d="M94.5,598.8l135.2,130.3h47v10.8h181.3l0.2-10.8h469.2v10.8h181.3v-10.8h53.9v-62.7h31.4v-67.6H94.5z
			 M353.3,620.8c2.5,0.3,4.4,2.3,4.4,4.8v2.2c0,2.4-1.7,4.4-4.1,4.8l-33,5.4l32.7,3.3c2.5,0.3,4.4,2.3,4.4,4.8v2.2
			c0,2.4-1.7,4.4-4.1,4.8l-33,5.4l32.7,3.3c2.5,0.2,4.4,2.3,4.4,4.8v2.2c0,2.4-1.7,4.4-4.1,4.8l-33,5.4l32.7,3.3
			c2.5,0.2,4.4,2.3,4.4,4.8v3.1c0,2.4-1.7,4.4-4.1,4.8l-33,5.4l32.7,3.3c2.5,0.3,4.4,2.3,4.4,4.8v2.2c0,2.4-1.7,4.4-4.1,4.8l-61,10
			c-3,0.5-5.6-1.8-5.6-4.8v0c0-2.4,1.7-4.4,4.1-4.8l33-5.4l-32.7-3.3c-2.5-0.3-4.4-2.3-4.4-4.8v-2.2c0-2.4,1.7-4.4,4.1-4.8l36.4-6
			l-36.1-3.6c-2.5-0.3-4.4-2.3-4.4-4.8v-2.2c0-2.4,1.7-4.4,4.1-4.8l33-5.4l-32.7-3.3c-2.5-0.3-4.4-2.3-4.4-4.8v-2.2
			c0-2.4,1.7-4.4,4.1-4.8l33-5.4l-32.7-3.3c-2.5-0.2-4.4-2.3-4.4-4.8v-2.2c0-2.4,1.7-4.4,4.1-4.8l33-5.4l-32.7-3.3
			c-2.5-0.2-4.4-2.3-4.4-4.8v-2.2c0-2.4,1.7-4.4,4.1-4.8l61-10c3-0.5,5.6,1.8,5.6,4.8c0,2.4-1.7,4.4-4.1,4.8l-33,5.4L353.3,620.8z
			 M444.7,620.8c2.5,0.3,4.4,2.3,4.4,4.8v2.2c0,2.4-1.7,4.4-4.1,4.8l-33,5.4l32.7,3.3c2.5,0.3,4.4,2.3,4.4,4.8v2.2
			c0,2.4-1.7,4.4-4.1,4.8l-33,5.4l32.7,3.3c2.5,0.2,4.4,2.3,4.4,4.8v2.2c0,2.4-1.7,4.4-4.1,4.8l-33,5.4l32.7,3.3
			c2.5,0.2,4.4,2.3,4.4,4.8v3.1c0,2.4-1.7,4.4-4.1,4.8l-33,5.4l32.7,3.3c2.5,0.3,4.4,2.3,4.4,4.8v2.2c0,2.4-1.7,4.4-4.1,4.8l-61,10
			c-3,0.5-5.6-1.8-5.6-4.8v0c0-2.4,1.7-4.4,4.1-4.8l33-5.4l-32.7-3.3c-2.5-0.3-4.4-2.3-4.4-4.8v-2.2c0-2.4,1.7-4.4,4.1-4.8l36.4-6
			l-36.1-3.6c-2.5-0.3-4.4-2.3-4.4-4.8v-2.2c0-2.4,1.7-4.4,4.1-4.8l33-5.4l-32.7-3.3c-2.5-0.3-4.4-2.3-4.4-4.8v-2.2
			c0-2.4,1.7-4.4,4.1-4.8l33-5.4l-32.7-3.3c-2.5-0.2-4.4-2.3-4.4-4.8v-2.2c0-2.4,1.7-4.4,4.1-4.8l33-5.4l-32.7-3.3
			c-2.5-0.2-4.4-2.3-4.4-4.8v-2.2c0-2.4,1.7-4.4,4.1-4.8l61-10c3-0.5,5.6,1.8,5.6,4.8c0,2.4-1.7,4.4-4.1,4.8l-33,5.4L444.7,620.8z
			 M1003.4,620.8c2.5,0.3,4.4,2.3,4.4,4.8v2.2c0,2.4-1.7,4.4-4.1,4.8l-33,5.4l32.7,3.3c2.5,0.3,4.4,2.3,4.4,4.8v2.2
			c0,2.4-1.7,4.4-4.1,4.8l-33,5.4l32.7,3.3c2.5,0.2,4.4,2.3,4.4,4.8v2.2c0,2.4-1.7,4.4-4.1,4.8l-33,5.4l32.7,3.3
			c2.5,0.2,4.4,2.3,4.4,4.8v3.1c0,2.4-1.7,4.4-4.1,4.8l-33,5.4l32.7,3.3c2.5,0.3,4.4,2.3,4.4,4.8v2.2c0,2.4-1.7,4.4-4.1,4.8l-61,10
			c-3,0.5-5.6-1.8-5.6-4.8v0c0-2.4,1.7-4.4,4.1-4.8l33-5.4l-32.7-3.3c-2.5-0.3-4.4-2.3-4.4-4.8v-2.2c0-2.4,1.7-4.4,4.1-4.8l36.4-6
			l-36.1-3.6c-2.5-0.3-4.4-2.3-4.4-4.8v-2.2c0-2.4,1.7-4.4,4.1-4.8l33-5.4l-32.7-3.3c-2.5-0.3-4.4-2.3-4.4-4.8v-2.2
			c0-2.4,1.7-4.4,4.1-4.8l33-5.4l-32.7-3.3c-2.5-0.2-4.4-2.3-4.4-4.8v-2.2c0-2.4,1.7-4.4,4.1-4.8l33-5.4l-32.7-3.3
			c-2.5-0.2-4.4-2.3-4.4-4.8v-2.2c0-2.4,1.7-4.4,4.1-4.8l61-10c3-0.5,5.6,1.8,5.6,4.8c0,2.4-1.7,4.4-4.1,4.8l-33,5.4L1003.4,620.8z
			 M1094.8,620.8c2.5,0.3,4.4,2.3,4.4,4.8v2.2c0,2.4-1.7,4.4-4.1,4.8l-33,5.4l32.7,3.3c2.5,0.3,4.4,2.3,4.4,4.8v2.2
			c0,2.4-1.7,4.4-4.1,4.8l-33,5.4l32.7,3.3c2.5,0.2,4.4,2.3,4.4,4.8v2.2c0,2.4-1.7,4.4-4.1,4.8l-33,5.4l32.7,3.3
			c2.5,0.2,4.4,2.3,4.4,4.8v3.1c0,2.4-1.7,4.4-4.1,4.8l-33,5.4l32.7,3.3c2.5,0.3,4.4,2.3,4.4,4.8v2.2c0,2.4-1.7,4.4-4.1,4.8l-61,10
			c-3,0.5-5.6-1.8-5.6-4.8v0c0-2.4,1.7-4.4,4.1-4.8l33-5.4l-32.7-3.3c-2.5-0.3-4.4-2.3-4.4-4.8v-2.2c0-2.4,1.7-4.4,4.1-4.8l36.4-6
			l-36.1-3.6c-2.5-0.3-4.4-2.3-4.4-4.8v-2.2c0-2.4,1.7-4.4,4.1-4.8l33-5.4l-32.7-3.3c-2.5-0.3-4.4-2.3-4.4-4.8v-2.2
			c0-2.4,1.7-4.4,4.1-4.8l33-5.4l-32.7-3.3c-2.5-0.2-4.4-2.3-4.4-4.8v-2.2c0-2.4,1.7-4.4,4.1-4.8l33-5.4l-32.7-3.3
			c-2.5-0.2-4.4-2.3-4.4-4.8v-2.2c0-2.4,1.7-4.4,4.1-4.8l61-10c3-0.5,5.6,1.8,5.6,4.8c0,2.4-1.7,4.4-4.1,4.8l-33,5.4L1094.8,620.8z"
			/>
	</g>
</g>
</svg>
