<?xml version="1.0" encoding="utf-8"?>
<!-- Generator: Adobe Illustrator 17.1.0, SVG Export Plug-In . SVG Version: 6.00 Build 0)  -->
<!DOCTYPE svg PUBLIC "-//W3C//DTD SVG 1.1//EN" "http://www.w3.org/Graphics/SVG/1.1/DTD/svg11.dtd">
<svg version="1.1" xmlns="http://www.w3.org/2000/svg" xmlns:xlink="http://www.w3.org/1999/xlink" x="0px" y="0px"
	 viewBox="0 0 1270.1 1139.1" enable-background="new 0 0 1270.1 1139.1" xml:space="preserve">
<g id="color">
</g>
<g id="Capa_4" display="none">
</g>
<g id="Capa_3">
	<g>
		<rect x="113.3" y="565.7" fill="#E5E5E5" width="140" height="79.1"/>
		<rect x="387.4" y="580.7" fill="#E5E5E5" width="140.6" height="55.7"/>
		<polygon fill="#E5E5E5" points="528,555.3 387.4,555.3 363.8,574.9 551.6,574.9 		"/>
		<path fill="#E5E5E5" d="M539.1,826.7H387.4h-9.2H226.5c0,0-38.6,0-38.6,40.6c0,40.6,38.6,40.6,38.6,40.6h151.8h9.2h151.8
			c0,0,38.6,0,38.6-40.6C577.7,826.7,539.1,826.7,539.1,826.7z"/>
		<path fill="#E5E5E5" d="M1122.1,575.2l-70.9,11l-0.4-0.1l18-105.6l-7.1-1.2l-17.8-215.9c0.6-2.6,0.8-5.3,0.8-8
			c0-21.1-17.1-38.3-38.3-38.3c-21.1,0-38.3,17.1-38.3,38.3s17.1,38.3,38.3,38.3c14.1,0,26.3-7.6,33-18.9l16.8,203.6l-6.8-1.2
			l-17.5,102.4L992.7,566l-27.8,125l115.9,30.7l60.2-162.4L1122.1,575.2z M1004.9,277.8c-10.4-0.9-18.7-9-20.1-19.2h5.9
			c1.1,7.2,6.9,12.9,14.2,13.9V277.8z M1004.9,239.5c-7.5,1-13.4,7-14.3,14.6h-5.9c0.8-10.9,9.4-19.6,20.2-20.5V239.5z
			 M1009.5,277.8v-5.2c7.3-1,13-6.7,14.2-13.9h5.2C1027.6,268.7,1019.5,276.6,1009.5,277.8z M1023.7,254
			c-0.9-7.5-6.8-13.5-14.3-14.6v-5.9c10.5,1.2,18.8,9.8,19.6,20.4H1023.7z"/>
		<polygon fill="#E5E5E5" points="280.1,778.4 279.8,805.2 503.8,805.2 503.8,775.5 536.5,775.8 556.8,713.6 76.7,713.6 76.7,754.5 
			76.7,801.9 232.7,801.9 		"/>
		<rect x="295.8" y="802.7" fill="#E5E5E5" width="191.7" height="14.3"/>
		<rect x="113.3" y="643.6" fill="#E5E5E5" width="443.5" height="70"/>
		<polygon fill="#E5E5E5" points="977.4,621.8 753.9,570.3 724.1,604.1 968.7,660.5 		"/>
		<polygon fill="#E5E5E5" points="985.4,585.7 989.1,569.2 932,608.6 947.3,612.1 		"/>
		<path fill="#E5E5E5" d="M963.7,257.3c0-1.7,0.1-3.5,0.3-5.1l-30.3,12.7l3.3,7.8L330.1,484.3l-0.6-1.7h-19.3l-50.5,154.5h22.2
			l37.9-115.3l37.9,115.3H380l-35.9-108.9L927.8,283L641.3,532.7l-19.4-5l-65.2,115.5v69.4l92.2-28.4L991.3,296
			C975.2,290.5,963.7,275.2,963.7,257.3z M331.7,489.4l534.8-186.5L342.4,523L331.7,489.4z M670,539.6l-22-5.3L940.1,280l3.9,9.2
			L670,539.6z"/>
	</g>
</g>
</svg>
