<?xml version="1.0" encoding="utf-8"?>
<!-- Generator: Adobe Illustrator 17.1.0, SVG Export Plug-In . SVG Version: 6.00 Build 0)  -->
<!DOCTYPE svg PUBLIC "-//W3C//DTD SVG 1.1//EN" "http://www.w3.org/Graphics/SVG/1.1/DTD/svg11.dtd">
<svg version="1.1" xmlns="http://www.w3.org/2000/svg" xmlns:xlink="http://www.w3.org/1999/xlink" x="0px" y="0px"
	 viewBox="0 0 1270.1 1139.1" enable-background="new 0 0 1270.1 1139.1" xml:space="preserve">
<g id="color">
</g>
<g id="Capa_4" display="none">
</g>
<g id="Capa_3">
	<g>
		<polygon fill="#E5E5E5" points="1138.6,246.4 1138.3,246.4 1138.3,245.9 1055,245.9 1055,246.6 941.7,839.9 342.6,839.9 
			229.2,246.4 229.2,246.4 229.2,245.9 146.6,245.9 146.6,925.5 1138.3,925.5 		"/>
		<path fill="#E5E5E5" d="M348.2,571.5c-4.1,0-8.3-1.7-12.5-4.3c-4.2-2.6-7.8-5.6-14.9-5.6c-7.7,0-8.4,1.3-12.1,4.7
			c-0.8,0.7-2.8,4-2.8,4l47.4,249.3h578.9l49.3-255.7c-4.4,0.8-4.9,0.8-7.7,3.4c-3.4,2.7-5.5,4.3-13.4,4.2c-4.1,0-8.3-1.7-12.5-4.3
			s-7.8-5.6-14.9-5.6c-7.7,0-14.9,5.6-14.9,5.6s-3.7,4.3-13.4,4.3c-4.1,0-8.3-1.7-12.5-4.3c-4.2-2.6-7.8-5.6-14.9-5.6
			c-7.7,0-11.1,2.2-14.9,5.6c-3.4,2.7-5.5,4.3-13.4,4.2c-4.1,0-8.3-1.7-12.5-4.3c-4.2-2.6-7.8-5.6-14.9-5.6
			c-7.7,0-14.7,5.4-14.7,5.4s-3.9,4.5-13.6,4.5c-4.1,0-8.3-1.7-12.5-4.3c-4.2-2.6-7.8-5.6-14.9-5.6c-7.7,0-11.1,2.2-14.9,5.6
			c-3.4,2.7-5.5,4.3-13.4,4.2c-4.1,0-8.3-1.7-12.5-4.3c-4.2-2.6-7.8-5.6-14.9-5.6c-7.8,0-12.5,3.2-14.7,5.5c0,0-2.7,4.4-13.6,4.4
			c-4.1,0-8.3-1.7-12.5-4.3c-4.2-2.6-7.8-5.6-14.9-5.6c-7.7,0-11.1,2.2-14.9,5.6c-3.4,2.7-5.5,4.3-13.4,4.2c-4.1,0-8.3-1.7-12.5-4.3
			s-7.8-5.6-14.9-5.6c-7.7,0-14.9,5.6-14.9,5.6s-3.7,4.2-13.4,4.2c-4.1,0-8.3-1.7-12.5-4.3s-7.8-5.6-14.9-5.6
			c-7.7,0-11.1,2.2-14.9,5.6c-3.4,2.7-5.5,4.3-13.4,4.2c-4.1,0-8.3-1.7-12.5-4.3c-4.2-2.6-7.8-5.6-14.9-5.6
			c-7.7,0-12.4,3.1-14.7,5.4c0,0-3.9,4.5-13.6,4.5c-4.1,0-8.3-1.7-12.5-4.3c-4.2-2.6-7.8-5.6-14.9-5.6c-7.7,0-11.1,2.2-14.9,5.6
			c-3.4,2.7-5.5,4.3-13.4,4.2c-4.1,0-8.3-1.7-12.5-4.3c-4.2-2.6-7.8-5.6-14.9-5.6c-7.7,0-14.7,5.3-14.7,5.3
			C361.8,567,358,571.5,348.2,571.5z"/>
		<path fill="#E5E5E5" d="M306.3,551c3.7-3.4,7.1-5.6,14.8-5.6c7,0,10.6,3,14.8,5.6c4.2,2.6,8.4,4.3,12.5,4.3c9.7,0,12.6-3,13.4-4.2
			v0c0,0,0,0,0,0c0.1-0.1,0.1-0.2,0.2-0.3v0.1c2.3-2.3,6.9-5.4,14.6-5.4c7,0,10.6,3,14.8,5.6c4.2,2.6,8.4,4.2,12.5,4.3
			c7.9,0,10.1-1.5,13.4-4.2c3.7-3.4,7.1-5.6,14.8-5.6c7,0,10.6,3,14.8,5.6c4.2,2.6,8.4,4.3,12.5,4.3c9.7,0,12.6-3,13.4-4.2v0
			c0,0,0,0,0,0c0.1-0.1,0.1-0.2,0.2-0.3v0.1c2.3-2.3,6.9-5.4,14.6-5.4c7,0,10.6,3,14.8,5.6c4.2,2.6,8.4,4.2,12.5,4.3
			c7.9,0,10.1-1.5,13.4-4.2c3.7-3.4,7.1-5.6,14.8-5.6c7,0,10.6,3,14.8,5.6c4.2,2.6,8.4,4.3,12.5,4.3c9.7,0,12.6-3,13.4-4.2v0
			c0,0,0,0,0,0c0.1-0.1,0.1-0.2,0.2-0.3v0.1c2.3-2.3,6.9-5.4,14.6-5.4c7,0,10.6,3,14.8,5.6c4.2,2.6,8.4,4.2,12.5,4.3
			c7.9,0,10.1-1.5,13.4-4.2c3.7-3.4,7.1-5.6,14.8-5.6c7,0,10.6,3,14.8,5.6c4.2,2.6,8.4,4.3,12.5,4.3c10.9,0,13.3-3.9,13.6-4.6v0.2
			c2.2-2.3,6.9-5.5,14.7-5.5c7,0,10.6,3,14.8,5.6c4.2,2.6,8.4,4.2,12.5,4.3c7.9,0,10.1-1.5,13.4-4.2c3.7-3.4,7.1-5.6,14.8-5.6
			c7,0,10.6,3,14.8,5.6c4.2,2.6,8.4,4.3,12.5,4.3c9.7,0,12.6-3,13.4-4.2v0c0,0,0,0,0,0c0.1-0.1,0.1-0.2,0.2-0.3v0.1
			c2.3-2.3,6.9-5.4,14.6-5.4c7,0,10.6,3,14.8,5.6c4.2,2.6,8.4,4.2,12.5,4.3c7.9,0,10.1-1.5,13.4-4.2c3.7-3.4,7.1-5.6,14.8-5.6
			c7,0,10.6,3,14.8,5.6c4.2,2.6,8.4,4.3,12.5,4.3c9.7,0,12.6-3,13.4-4.2v0c0,0,0,0,0,0c0.1-0.1,0.1-0.2,0.2-0.3v0.1
			c2.3-2.3,6.9-5.4,14.6-5.4c7,0,10.6,3,14.8,5.6c4.2,2.6,8.4,4.2,12.5,4.3c7.9,0,10.1-1.5,13.4-4.2c3.4-3,4.4-5.1,10.5-5.5
			l33.5-172.8c-0.4,0-0.1,0-0.6,0c-4.1,0-7.6-1.7-11.8-4.3c-4.2-2.6-7.8-5.6-14.9-5.6c-7.7,0-11.1,2.2-14.9,5.6
			c-3.4,2.7-5.5,4.3-13.4,4.2c-4.1,0-8.3-1.7-12.5-4.3c-4.2-2.6-7.8-5.6-14.9-5.6c-7.7,0-12.4,3.1-14.7,5.4v-0.1
			c0,0.1-0.1,0.2-0.2,0.3c0,0,0,0,0,0v0c-0.8,1.2-3.7,4.2-13.4,4.2c-4.1,0-8.3-1.7-12.5-4.3c-4.2-2.6-7.8-5.6-14.9-5.6
			c-7.7,0-11.1,2.2-14.9,5.6c-3.4,2.7-5.5,4.3-13.4,4.2c-4.1,0-8.3-1.7-12.5-4.3c-4.2-2.6-7.8-5.6-14.9-5.6
			c-7.7,0-12.4,3.1-14.7,5.4v-0.1c0,0.1-0.1,0.2-0.2,0.3c0,0,0,0,0,0v0c-0.8,1.2-3.7,4.2-13.4,4.2c-4.1,0-8.3-1.7-12.5-4.3
			c-4.2-2.6-7.8-5.6-14.9-5.6c-7.7,0-11.1,2.2-14.9,5.6c-3.4,2.7-5.5,4.3-13.4,4.2c-4.1,0-8.3-1.7-12.5-4.3
			c-4.2-2.6-7.8-5.6-14.9-5.6c-7.8,0-12.5,3.2-14.7,5.5v-0.2c-0.3,0.7-2.7,4.6-13.6,4.6c-4.1,0-8.3-1.7-12.5-4.3
			c-4.2-2.6-7.8-5.6-14.9-5.6c-7.7,0-11.1,2.2-14.9,5.6c-3.4,2.7-5.5,4.3-13.4,4.2c-4.1,0-8.3-1.7-12.5-4.3
			c-4.2-2.6-7.8-5.6-14.9-5.6c-7.7,0-12.4,3.1-14.7,5.4v-0.1c0,0.1-0.1,0.2-0.2,0.3c0,0,0,0,0,0v0c-0.8,1.2-3.7,4.2-13.4,4.2
			c-4.1,0-8.3-1.7-12.5-4.3c-4.2-2.6-7.8-5.6-14.9-5.6c-7.7,0-11.1,2.2-14.9,5.6c-3.4,2.7-5.5,4.3-13.4,4.2c-4.1,0-8.3-1.7-12.5-4.3
			c-4.2-2.6-7.8-5.6-14.9-5.6c-7.7,0-12.4,3.1-14.7,5.4v-0.1c0,0.1-0.1,0.2-0.2,0.3c0,0,0,0,0,0v0c-0.8,1.2-3.7,4.2-13.4,4.2
			c-4.1,0-8.3-1.7-12.5-4.3c-4.2-2.6-7.8-5.6-14.9-5.6c-7.7,0-11.1,2.2-14.9,5.6c-3.4,2.7-5.5,4.3-13.4,4.2c-4.1,0-8.3-1.7-12.5-4.3
			c-4.2-2.6-7.8-5.6-14.9-5.6c-7.7,0-12.4,3.1-14.7,5.4v-0.1c0,0.1-0.1,0.2-0.2,0.3c0,0,0,0,0,0v0c-0.8,1.2-3.7,4.2-13.4,4.2
			c-4.1,0-8.3-1.7-12.5-4.3c-4.2-2.6-7.8-5.6-14.9-5.6c-7.7,0-11.1,2.2-14.9,5.6c-3.4,2.7-5.5,4.3-13.4,4.2c-4.1,0-8.3-1.7-12.5-4.3
			c-4.2-2.6-7.8-5.6-14.9-5.6c-1.5,0,1.9,0.2,0.6,0.4l36.6,191.4C305.2,552.4,305.2,552.4,306.3,551z"/>
	</g>
</g>
</svg>
