<?xml version="1.0" encoding="utf-8"?>
<!-- Generator: Adobe Illustrator 17.1.0, SVG Export Plug-In . SVG Version: 6.00 Build 0)  -->
<!DOCTYPE svg PUBLIC "-//W3C//DTD SVG 1.1//EN" "http://www.w3.org/Graphics/SVG/1.1/DTD/svg11.dtd">
<svg version="1.1" xmlns="http://www.w3.org/2000/svg" xmlns:xlink="http://www.w3.org/1999/xlink" x="0px" y="0px"
	 viewBox="0 0 1270.1 1139.1" enable-background="new 0 0 1270.1 1139.1" xml:space="preserve">
<g id="color">
</g>
<g id="Capa_4" display="none">
</g>
<g id="Capa_3">
	<g>
		<polygon fill="#E5E5E5" points="596.5,738.6 596.5,986.3 627.7,986.3 627.7,738.6 612.1,741.4 		"/>
		<polygon fill="#E5E5E5" points="120.8,630.2 612.1,729.5 1103.4,630.2 1103.4,390.2 120.8,390.2 		"/>
		<polygon fill="#E5E5E5" points="693.4,258.2 653.2,258.2 653.2,229.4 631.9,229.4 631.9,197.6 589,197.6 589,229.4 566.8,229.4 
			566.8,258.2 530.9,258.2 530.9,270.8 120.8,270.8 120.8,293.5 530.9,293.5 530.9,304.5 693.4,304.5 693.4,293.5 1103.4,293.5 
			1103.4,270.8 693.4,270.8 		"/>
		<rect x="120.8" y="313.6" fill="#E5E5E5" width="982.6" height="65.7"/>
		<rect x="1112.5" y="408.5" fill="#E5E5E5" width="26.5" height="72.5"/>
		<rect x="1112.6" y="333" fill="#E5E5E5" width="51.5" height="26.5"/>
		<path fill="#E5E5E5" d="M524.1,847.1l-65.9-65.9l59.4-59.4l-27.8-5.6l-48.3,48.3l-72.7-72.7l-33.3-6.7v10.3l-75.9,75.9L184,695.6
			v-41l-23.6-4.7v230.4H184l75.7-75.6l75.9,75.6h23.6l82.4-82.4l82.6,82.4h23.6V727.8l-23.6-4.7V847.1z M184,847v-118l59,59L184,847
			z M335.5,847.1l-59.2-59.2l59.2-59.2V847.1z M359.1,847V715.5l65.8,65.8L359.1,847z"/>
		<path fill="#E5E5E5" d="M1039.4,695.6l-75.7,75.7l-75.9-75.9v-9.6l-34.1,6.9l-71.9,71.9l-47.8-47.8l-27.8,5.6l58.9,58.9
			l-65.9,65.9V723.8l-23.6,4.7v151.7h23.6l82.6-82.4l82.4,82.4h23.6l75.9-75.6l75.7,75.6h23.6V650.5l-23.6,4.7V695.6z M864.3,847
			l-65.8-65.8l65.8-65.8V847z M887.9,847.1V728.7l59.2,59.2L887.9,847.1z M1039.4,847l-59-59l59-59V847z"/>
	</g>
</g>
</svg>
