<?xml version="1.0" encoding="utf-8"?>
<!-- Generator: Adobe Illustrator 17.1.0, SVG Export Plug-In . SVG Version: 6.00 Build 0)  -->
<!DOCTYPE svg PUBLIC "-//W3C//DTD SVG 1.1//EN" "http://www.w3.org/Graphics/SVG/1.1/DTD/svg11.dtd">
<svg version="1.1" xmlns="http://www.w3.org/2000/svg" xmlns:xlink="http://www.w3.org/1999/xlink" x="0px" y="0px"
	 viewBox="0 0 1270.1 1139.1" enable-background="new 0 0 1270.1 1139.1" xml:space="preserve">
<g id="color">
</g>
<g id="Capa_4" display="none">
</g>
<g id="Capa_3">
	<g>
		<rect x="325.6" y="591.8" width="0" height="0"/>
		<g>
			<path fill="#E5E5E5" d="M293.5,573.5c16,0,22.8,7.6,25.6,10.6c2.8,3,4.2,10.6,20.2,10.6c18,0,22.9-10.6,22.9-10.6
				s8-10.5,23.7-10.5c16,0,25.6,10.6,25.6,10.6s4.2,10.6,20.2,10.6c14,0,19.6-8.1,22.3-10.6c2.8-2.6,8-10.5,23.7-10.5
				c16,0,25.6,10.6,25.6,10.6s4.2,10.6,20.2,10.6c18,0,22.9-10.6,22.9-10.6s8-10.5,23.7-10.5c16,0,24.6,11.4,24.6,11.4l4.7,5V261.2
				H272.3v322.9C272.3,584.2,277.8,573.5,293.5,573.5z"/>
			<rect x="499.5" y="89.4" fill="#E5E5E5" width="259.7" height="97.9"/>
			<path fill="#E5E5E5" d="M222.4,201.7v817.9h814V201.7H222.4z M1003.4,976.4h-748V244.8h358.4v581l-52,56.2l-63.3-0.2v48.2h261.7
				v-48.2l-64.7,0.2L645,827.4V244.8h358.4V976.4z"/>
			<path fill="#E5E5E5" d="M688.8,573.5c15.7,0,23.7,10.5,23.7,10.5s4.9,10.6,22.9,10.6c16,0,20.2-10.6,20.2-10.6
				s9.5-10.6,25.6-10.6c15.7,0,20.9,7.9,23.7,10.5c2.7,2.5,8.3,10.6,22.3,10.6c16,0,20.2-10.6,20.2-10.6s9.5-10.6,25.6-10.6
				c15.7,0,23.7,10.5,23.7,10.5s4.9,10.6,22.9,10.6c16,0,17.5-7.6,20.2-10.6c2.8-3,9.5-10.6,25.6-10.6c15.7,0,21.1,10.7,21.1,10.7
				V261.2H659.4v328.7l4.7-5.9C664.1,584.1,672.7,573.5,688.8,573.5z"/>
			<path fill="#E5E5E5" d="M774.4,866.9v76.7h-290v-76.7l73.2,0.1l41.8-47.7V610.4l-0.5-0.2c-4.2-2.8-6.2-5.7-6.2-5.7
				s-6.7-10.6-22.7-10.6c-15.7,0-20.8,10.5-20.8,10.5s-7.8,10.6-25.8,10.6c-16,0-23.1-10.6-23.1-10.6s-6.7-10.6-22.7-10.6
				c-15.7,0-18,7.9-20.8,10.5c-2.7,2.5-11.2,10.6-25.2,10.6c-16,0-23.1-10.6-23.1-10.6s-6.7-10.6-22.7-10.6
				c-15.7,0-20.8,10.5-20.8,10.5s-7.8,10.6-25.8,10.6c-16,0-23.1-10.6-23.1-10.6s-6.7-10.6-22.7-10.6c-15.7,0-20.8,10.5-20.8,10.5
				l-0.3,1.1V960h714.1V605.6l-0.3-1.1c0,0-5.2-10.5-20.8-10.5c-16,0-22.7,10.6-22.7,10.6s-7,10.6-23.1,10.6
				c-18,0-25.8-10.6-25.8-10.6s-5.2-10.5-20.8-10.5c-16,0-22.7,10.6-22.7,10.6s-7,10.6-23.1,10.6c-14,0-22.5-8.1-25.2-10.6
				c-2.8-2.6-5.2-10.5-20.8-10.5c-16,0-22.7,10.6-22.7,10.6s-7,10.6-23.1,10.6c-18,0-25.8-10.6-25.8-10.6s-5.2-10.5-20.8-10.5
				c-16,0-22.7,10.6-22.7,10.6s-2,2.9-6.2,5.7l-0.5,0.2v210.1l41.3,46.5L774.4,866.9z"/>
		</g>
	</g>
</g>
</svg>
